<svg width="490" height="411" viewBox="0 0 490 411" fill="none" xmlns="http://www.w3.org/2000/svg">
<g filter="url(#filter0_f_5_426)">
<circle cx="354.5" cy="135.5" r="100.5" fill="url(#paint0_linear_5_426)"/>
</g>
<circle cx="354.5" cy="135.5" r="100.5" fill="url(#paint1_linear_5_426)"/>
<path fill-rule="evenodd" clip-rule="evenodd" d="M239.929 360C237.168 360 234.929 357.761 234.929 355V336.962L225.607 346.284C223.654 348.237 220.488 348.237 218.536 346.284C216.583 344.332 216.583 341.166 218.536 339.213L234.929 322.82V296.54L212.321 309.593L206.36 331.838C205.645 334.505 202.904 336.088 200.236 335.373C197.569 334.659 195.986 331.917 196.701 329.25L200.073 316.664L184.546 325.629C182.155 327.009 179.097 326.19 177.716 323.799L177.698 323.768L177.68 323.737C176.3 321.346 177.119 318.288 179.511 316.907L195.132 307.888L182.398 304.476C179.73 303.761 178.147 301.019 178.862 298.352C179.577 295.685 182.318 294.102 184.986 294.816L207.379 300.817L230.549 287.44L207.441 274.098L184.95 280.125C182.283 280.839 179.541 279.257 178.826 276.589C178.112 273.922 179.695 271.18 182.362 270.465L195.194 267.027L179.511 257.973C177.119 256.592 176.3 253.534 177.68 251.143L177.698 251.112L177.716 251.081C179.097 248.69 182.155 247.87 184.546 249.251L200.012 258.18L196.665 245.691C195.951 243.024 197.533 240.282 200.201 239.568C202.868 238.853 205.61 240.436 206.325 243.103L212.259 265.251L234.929 278.339V252.251L218.465 235.787C216.512 233.834 216.512 230.668 218.465 228.716C220.417 226.763 223.583 226.763 225.536 228.716L234.929 238.109V220C234.929 217.239 237.168 215 239.929 215L239.965 215L240 215C242.762 215 245 217.239 245 220V237.858L254.142 228.716C256.095 226.763 259.261 226.763 261.213 228.716C263.166 230.668 263.166 233.834 261.213 235.787L245 252V279.096L268.494 265.533L274.52 243.042C275.235 240.374 277.976 238.791 280.644 239.506C283.311 240.221 284.894 242.963 284.179 245.63L280.741 258.461L296.424 249.407C298.815 248.026 301.873 248.846 303.254 251.237L303.272 251.268L303.29 251.299C304.67 253.69 303.851 256.748 301.46 258.129L285.994 267.058L298.483 270.404C301.15 271.119 302.733 273.86 302.018 276.528C301.303 279.195 298.562 280.778 295.894 280.063L273.747 274.129L250.691 287.44L273.685 300.715L295.93 294.755C298.597 294.04 301.339 295.623 302.054 298.29C302.768 300.958 301.185 303.699 298.518 304.414L285.933 307.786L301.46 316.751C303.851 318.132 304.67 321.19 303.29 323.581L303.272 323.612L303.254 323.643C301.873 326.034 298.815 326.853 296.424 325.473L280.803 316.454L284.215 329.188C284.93 331.855 283.347 334.597 280.679 335.312C278.012 336.027 275.27 334.444 274.556 331.776L268.555 309.383L245 295.783V322.929L261.285 339.213C263.237 341.166 263.237 344.332 261.285 346.284C259.332 348.237 256.166 348.237 254.213 346.284L245 337.071V355C245 357.761 242.762 360 240 360L239.965 360L239.929 360Z" fill="white"/>
<path fill-rule="evenodd" clip-rule="evenodd" d="M327.265 395.137C325.959 395.137 324.901 394.079 324.901 392.774V384.249L320.495 388.655C319.573 389.578 318.076 389.578 317.153 388.655C316.231 387.732 316.231 386.236 317.153 385.313L324.901 377.565V365.145L314.216 371.314L311.399 381.827C311.061 383.088 309.765 383.836 308.505 383.498C307.244 383.16 306.496 381.865 306.834 380.604L308.428 374.656L301.089 378.893C299.959 379.545 298.514 379.158 297.861 378.028L297.851 378.01L297.844 377.999C297.192 376.868 297.579 375.423 298.709 374.77L306.092 370.508L300.074 368.895C298.813 368.557 298.065 367.262 298.403 366.001C298.741 364.74 300.036 363.992 301.297 364.33L311.881 367.166L322.831 360.844L311.91 354.538L301.28 357.386C300.019 357.724 298.724 356.976 298.386 355.715C298.048 354.455 298.796 353.159 300.057 352.821L306.121 351.196L298.709 346.917C297.579 346.264 297.192 344.819 297.844 343.689L297.852 343.675L297.861 343.66C298.514 342.529 299.959 342.142 301.089 342.795L308.399 347.015L306.817 341.112C306.479 339.852 307.227 338.556 308.488 338.218C309.749 337.88 311.044 338.629 311.382 339.889L314.187 350.357L324.901 356.543V344.213L317.12 336.431C316.197 335.508 316.197 334.012 317.12 333.089C318.043 332.166 319.539 332.166 320.462 333.089L324.901 337.529V328.97C324.901 327.665 325.959 326.607 327.265 326.607L327.282 326.607L327.298 326.607C328.603 326.607 329.661 327.665 329.661 328.97V337.41L333.982 333.089C334.905 332.166 336.401 332.166 337.324 333.089C338.247 334.012 338.247 335.508 337.324 336.431L329.661 344.094V356.9L340.765 350.49L343.613 339.86C343.951 338.599 345.247 337.851 346.507 338.189C347.768 338.527 348.516 339.823 348.178 341.083L346.553 347.148L353.965 342.868C355.096 342.216 356.541 342.603 357.193 343.733L357.204 343.751L357.21 343.762C357.863 344.893 357.476 346.338 356.345 346.991L349.036 351.211L354.938 352.792C356.199 353.13 356.947 354.426 356.609 355.686C356.272 356.947 354.976 357.695 353.715 357.357L343.248 354.552L332.351 360.844L343.219 367.118L353.732 364.301C354.993 363.963 356.288 364.711 356.626 365.972C356.964 367.233 356.216 368.528 354.955 368.866L349.007 370.46L356.345 374.697C357.476 375.349 357.863 376.795 357.21 377.925L357.202 377.938L357.194 377.954C356.541 379.084 355.096 379.472 353.965 378.819L346.583 374.556L348.195 380.575C348.533 381.836 347.785 383.131 346.524 383.469C345.264 383.807 343.968 383.059 343.63 381.798L340.794 371.215L329.661 364.787V377.617L337.358 385.313C338.28 386.236 338.28 387.732 337.358 388.655C336.435 389.578 334.939 389.578 334.016 388.655L329.661 384.301V392.774C329.661 394.079 328.603 395.137 327.298 395.137L327.281 395.137L327.265 395.137Z" fill="white"/>
<path fill-rule="evenodd" clip-rule="evenodd" d="M132.231 365.683L117.85 373.986L103.951 370.262C102.295 369.818 100.593 370.801 100.15 372.456C99.7062 374.112 100.689 375.814 102.344 376.257L110.248 378.375L100.552 383.973C99.0679 384.83 98.5593 386.728 99.4163 388.212L99.433 388.241L99.4386 388.251C100.296 389.735 102.194 390.244 103.678 389.387L113.315 383.822L111.222 391.634C110.779 393.29 111.761 394.991 113.417 395.435C115.072 395.879 116.774 394.896 117.218 393.241L120.917 379.433L134.95 371.332V387.643L124.775 397.818C123.563 399.03 123.563 400.995 124.775 402.207C125.987 403.419 127.952 403.419 129.164 402.207L134.95 396.421V407.617C134.95 409.331 136.34 410.72 138.054 410.72L138.078 410.72L138.098 410.72C139.812 410.72 141.201 409.331 141.201 407.617V396.489L146.92 402.207C148.132 403.419 150.097 403.419 151.309 402.207C152.521 400.995 152.521 399.03 151.309 397.818L141.201 387.711V370.862L155.822 379.303L159.546 393.202C159.99 394.858 161.691 395.84 163.347 395.397C165.003 394.953 165.985 393.251 165.541 391.596L163.424 383.692L173.12 389.29C174.604 390.147 176.502 389.638 177.359 388.154L177.373 388.13L177.381 388.116C178.238 386.631 177.729 384.733 176.245 383.876L166.608 378.312L174.419 376.219C176.075 375.775 177.057 374.074 176.614 372.418C176.17 370.762 174.468 369.78 172.813 370.223L159.006 373.923L144.734 365.683L159.044 357.421L172.791 361.104C174.446 361.548 176.148 360.566 176.591 358.91C177.035 357.254 176.053 355.553 174.397 355.109L166.646 353.032L176.245 347.49C177.729 346.633 178.238 344.735 177.381 343.251L177.364 343.222L177.359 343.212C176.502 341.728 174.604 341.219 173.119 342.076L163.385 347.696L165.519 339.732C165.963 338.076 164.98 336.375 163.325 335.931C161.669 335.488 159.967 336.47 159.524 338.126L155.783 352.085L141.201 360.504V343.686L151.265 333.623C152.477 332.411 152.477 330.446 151.265 329.234C150.053 328.022 148.088 328.022 146.876 329.234L141.201 334.908V323.824C141.201 322.11 139.812 320.72 138.098 320.72L138.073 320.72L138.054 320.72C136.34 320.72 134.95 322.11 134.95 323.824V335.064L129.12 329.234C127.908 328.022 125.943 328.022 124.731 329.234C123.519 330.446 123.519 332.411 124.731 333.623L134.95 343.842V360.035L120.879 351.911L117.196 338.164C116.752 336.508 115.05 335.526 113.395 335.969C111.739 336.413 110.757 338.115 111.2 339.77L113.277 347.522L103.678 341.98C102.194 341.123 100.296 341.631 99.4387 343.116L99.425 343.14L99.4167 343.154C98.5597 344.638 99.0682 346.536 100.553 347.393L110.287 353.013L102.322 355.147C100.667 355.591 99.6842 357.293 100.128 358.948C100.571 360.604 102.273 361.586 103.929 361.143L117.889 357.402L132.231 365.683Z" fill="white"/>
<g filter="url(#filter1_b_5_426)">
<mask id="path-6-inside-1_5_426" fill="white">
<path fill-rule="evenodd" clip-rule="evenodd" d="M363 312.999C413.856 312.73 455 271.42 455 220.5C455 169.414 413.586 128 362.5 128C357.32 128 352.24 128.426 347.292 129.244C339.482 103.632 315.667 85 287.5 85C274.495 85 262.417 88.9723 252.414 95.7698C239.466 60.3123 205.439 35 165.5 35C114.414 35 73 76.4137 73 127.5C73 128.353 73.0116 129.204 73.0345 130.052C31.295 138.991 0 176.091 0 220.5C0 271.42 41.1437 312.73 92 312.999V313H92.5H362.5H363V312.999Z"/>
</mask>
<path fill-rule="evenodd" clip-rule="evenodd" d="M363 312.999C413.856 312.73 455 271.42 455 220.5C455 169.414 413.586 128 362.5 128C357.32 128 352.24 128.426 347.292 129.244C339.482 103.632 315.667 85 287.5 85C274.495 85 262.417 88.9723 252.414 95.7698C239.466 60.3123 205.439 35 165.5 35C114.414 35 73 76.4137 73 127.5C73 128.353 73.0116 129.204 73.0345 130.052C31.295 138.991 0 176.091 0 220.5C0 271.42 41.1437 312.73 92 312.999V313H92.5H362.5H363V312.999Z" fill="url(#paint2_linear_5_426)"/>
<path d="M363 312.999L362.989 310.999L361 311.009V312.999H363ZM347.292 129.244L345.379 129.828L345.89 131.503L347.618 131.217L347.292 129.244ZM252.414 95.7698L250.536 96.4558L251.416 98.8664L253.538 97.424L252.414 95.7698ZM73.0345 130.052L73.4534 132.007L75.0788 131.659L75.0338 129.998L73.0345 130.052ZM92 312.999H94V311.009L92.0106 310.999L92 312.999ZM92 313H90V315H92V313ZM363 313V315H365V313H363ZM363.011 314.999C414.967 314.724 457 272.521 457 220.5H453C453 270.319 412.746 310.735 362.989 310.999L363.011 314.999ZM457 220.5C457 168.309 414.691 126 362.5 126V130C412.482 130 453 170.518 453 220.5H457ZM362.5 126C357.21 126 352.021 126.435 346.965 127.271L347.618 131.217C352.459 130.417 357.43 130 362.5 130V126ZM349.205 128.661C341.145 102.231 316.571 83 287.5 83V87C314.762 87 337.818 105.034 345.379 129.828L349.205 128.661ZM287.5 83C274.081 83 261.614 87.0999 251.29 94.1156L253.538 97.424C263.22 90.8447 274.908 87 287.5 87V83ZM254.293 95.0838C241.066 58.8625 206.306 33 165.5 33V37C204.572 37 237.866 61.762 250.536 96.4558L254.293 95.0838ZM165.5 33C113.309 33 71 75.3091 71 127.5H75C75 77.5182 115.518 37 165.5 37V33ZM71 127.5C71 128.371 71.0118 129.24 71.0352 130.106L75.0338 129.998C75.0113 129.168 75 128.335 75 127.5H71ZM72.6157 128.096C29.9731 137.229 -2 175.128 -2 220.5H2C2 177.054 32.617 140.754 73.4534 132.007L72.6157 128.096ZM-2 220.5C-2 272.521 40.0333 314.724 91.9894 314.999L92.0106 310.999C42.2541 310.735 2 270.319 2 220.5H-2ZM94 313V312.999H90V313H94ZM92.5 311H92V315H92.5V311ZM362.5 311H92.5V315H362.5V311ZM363 311H362.5V315H363V311ZM361 312.999V313H365V312.999H361Z" fill="url(#paint3_linear_5_426)" fill-opacity="0.5" mask="url(#path-6-inside-1_5_426)"/>
</g>
<defs>
<filter id="filter0_f_5_426" x="219" y="0" width="271" height="271" filterUnits="userSpaceOnUse" color-interpolation-filters="sRGB">
<feFlood flood-opacity="0" result="BackgroundImageFix"/>
<feBlend mode="normal" in="SourceGraphic" in2="BackgroundImageFix" result="shape"/>
<feGaussianBlur stdDeviation="17.5" result="effect1_foregroundBlur_5_426"/>
</filter>
<filter id="filter1_b_5_426" x="-25" y="10" width="505" height="328" filterUnits="userSpaceOnUse" color-interpolation-filters="sRGB">
<feFlood flood-opacity="0" result="BackgroundImageFix"/>
<feGaussianBlur in="BackgroundImage" stdDeviation="12.5"/>
<feComposite in2="SourceAlpha" operator="in" result="effect1_backgroundBlur_5_426"/>
<feBlend mode="normal" in="SourceGraphic" in2="effect1_backgroundBlur_5_426" result="shape"/>
</filter>
<linearGradient id="paint0_linear_5_426" x1="254" y1="35" x2="455" y2="236" gradientUnits="userSpaceOnUse">
<stop stop-color="#F9CC5F"/>
<stop offset="1" stop-color="#FEA119"/>
</linearGradient>
<linearGradient id="paint1_linear_5_426" x1="254" y1="35" x2="455" y2="236" gradientUnits="userSpaceOnUse">
<stop stop-color="#F9CC5F"/>
<stop offset="1" stop-color="#FEA119"/>
</linearGradient>
<linearGradient id="paint2_linear_5_426" x1="0" y1="35" x2="455" y2="313" gradientUnits="userSpaceOnUse">
<stop stop-color="white" stop-opacity="0.5"/>
<stop offset="1" stop-color="white" stop-opacity="0"/>
</linearGradient>
<linearGradient id="paint3_linear_5_426" x1="227.5" y1="35" x2="227.5" y2="313" gradientUnits="userSpaceOnUse">
<stop stop-color="white" stop-opacity="0"/>
<stop offset="1" stop-color="white" stop-opacity="0.5"/>
</linearGradient>
</defs>
</svg>
